<svg id="Layer_1" data-name="Layer 1" xmlns="http://www.w3.org/2000/svg" xmlns:xlink="http://www.w3.org/1999/xlink" viewBox="0 0 2002 1080"><defs><style>.cls-1{fill:#00041e;}.cls-2{fill:url(#linear-gradient);}.cls-3{fill:url(#linear-gradient-2);}.cls-4{fill:url(#linear-gradient-3);}.cls-5{fill:url(#linear-gradient-4);}</style><linearGradient id="linear-gradient" x1="173.15" y1="301.43" x2="347.03" y2="719.76" gradientUnits="userSpaceOnUse"><stop offset="0" stop-color="#e2000c"/><stop offset="0.17" stop-color="#e71118"/><stop offset="0.49" stop-color="#f43b37"/><stop offset="0.55" stop-color="#d23334"/><stop offset="0.71" stop-color="#791f2a"/><stop offset="0.85" stop-color="#381124"/><stop offset="0.95" stop-color="#0f0720"/><stop offset="1" stop-color="#00041e"/></linearGradient><linearGradient id="linear-gradient-2" x1="85.76" y1="379.79" x2="83.45" y2="373.2" gradientUnits="userSpaceOnUse"><stop offset="0" stop-color="#00041e"/><stop offset="0.18" stop-color="#6d1f26" stop-opacity="0.91"/><stop offset="0.39" stop-color="#fa4230" stop-opacity="0.8"/><stop offset="0.52" stop-color="#f23839" stop-opacity="0.84"/><stop offset="0.76" stop-color="#dd1c52" stop-opacity="0.96"/><stop offset="0.82" stop-color="#d6145a"/></linearGradient><linearGradient id="linear-gradient-3" x1="-9.15" y1="483.86" x2="414.79" y2="775.15" gradientUnits="userSpaceOnUse"><stop offset="0" stop-color="#f45351"/><stop offset="0.12" stop-color="#f14646"/><stop offset="0.5" stop-color="#ea2127"/><stop offset="0.81" stop-color="#e50a14"/><stop offset="1" stop-color="#e3020d"/></linearGradient><linearGradient id="linear-gradient-4" x1="227.7" y1="715.72" x2="32.35" y2="705.49" gradientUnits="userSpaceOnUse"><stop offset="0" stop-color="#00041e"/><stop offset="0.06" stop-color="#26041b"/><stop offset="0.14" stop-color="#520418"/><stop offset="0.22" stop-color="#790315"/><stop offset="0.31" stop-color="#9a0313"/><stop offset="0.41" stop-color="#b50311"/><stop offset="0.52" stop-color="#c90310"/><stop offset="0.63" stop-color="#d8030f"/><stop offset="0.77" stop-color="#e0030e"/><stop offset="1" stop-color="#e3030e"/></linearGradient></defs><title>Horizontal Version 1</title><path class="cls-1" d="M507,410.33H612c44.22,0,76.81,34.91,76.81,82.13,0,29.59-14,54.53-35.58,68.16l41.23,89.11H651.26l-34.92-75.48a49.37,49.37,0,0,1-7,.33H546.19v75.15H507Zm39.24,125H606.7c26.27,0,43.23-17,43.23-42.89,0-26.27-16.63-42.9-42.9-42.9H546.19Z"/><path class="cls-1" d="M789.58,480.15c47.21,0,79.46,34.58,79.46,84.13,0,6.32-1,13.3-1.66,20H743.69c6.65,20.61,25.27,33.25,49.88,33.25,16,0,31.25-5.65,41.23-16.63l24.93,24.94c-16,17.62-39.23,27.27-66.5,27.27-50.21,0-88.44-37.58-88.44-86.45S741.36,480.15,789.58,480.15ZM743,553.64h89.12c-3.33-23.61-20.95-38.24-43.23-38.24C766,515.4,746.35,530.69,743,553.64Z"/><path class="cls-1" d="M972.78,480.15c21,0,40.23,11,51.2,23.94V410.33h39.24v239.4H1024V628.45c-11,13.63-30.25,24.61-51.2,24.61-47.55,0-82.46-38.91-82.46-86.45S925.23,480.15,972.78,480.15Zm-43.23,86.46a47.22,47.22,0,1,0,47.22-47.22A47.4,47.4,0,0,0,929.55,566.61Z"/><path class="cls-1" d="M1176.6,480.15c47.21,0,79.46,34.58,79.46,84.13,0,6.32-1,13.3-1.66,20H1130.71c6.65,20.61,25.27,33.25,49.88,33.25,16,0,31.25-5.65,41.23-16.63l24.93,24.94c-16,17.62-39.23,27.27-66.5,27.27-50.21,0-88.44-37.58-88.44-86.45S1128.38,480.15,1176.6,480.15ZM1130,553.64h89.12c-3.33-23.61-21-38.24-43.23-38.24C1153,515.4,1133.37,530.69,1130,553.64Z"/><path class="cls-1" d="M1362.13,480.15c47.21,0,79.46,34.58,79.46,84.13,0,6.32-1,13.3-1.66,20H1316.24c6.65,20.61,25.27,33.25,49.88,33.25,16,0,31.25-5.65,41.23-16.63l24.94,24.94c-16,17.62-39.24,27.27-66.51,27.27-50.21,0-88.44-37.58-88.44-86.45S1313.91,480.15,1362.13,480.15Zm-46.56,73.49h89.12c-3.33-23.61-21-38.24-43.23-38.24C1338.52,515.4,1318.9,530.69,1315.57,553.64Z"/><path class="cls-1" d="M1470.18,483.48h39.24v17.95a69,69,0,0,1,49.88-21.28c25.27,0,45.22,11.64,55.86,31.26,15-19,32.58-31.26,59.18-31.26,38.57,0,65.17,27.27,65.17,69.5V649.73h-39.23V558c0-27.93-14.63-40.9-35.58-40.9-22.61,0-40.23,16.63-40.23,42.23v90.44h-39.24V558c0-27.93-14.63-40.9-35.58-40.9-22.61,0-40.23,16.63-40.23,42.9v89.77h-39.24Z"/><path class="cls-1" d="M1941,566.61a86.45,86.45,0,1,1-86.45-86.46A86.49,86.49,0,0,1,1941,566.61Zm-86.45,47.21a47.22,47.22,0,1,0-47.22-47.21A47.4,47.4,0,0,0,1854.55,613.82Z"/><path class="cls-2" d="M372.46,500.29c-.23,50.16-26.3,98.22-69.38,125.14l-10-5.72c.38-1.49.73-3,1.06-4.51a146.82,146.82,0,0,0,3.47-31.9c0-1.19,0-2.38-.05-3.54-.85-21.17-5.55-41.59-15.43-60.43-9.71-18.54-23.45-33.57-39.31-47.24A283.13,283.13,0,0,0,208.67,447c-2.92-1.88-5.86-3.71-8.85-5.46-8.29-4.92-16.74-9.54-25.33-13.94L87.82,378.49l-6.17-3.68L72.4,369.3l25.13-23.66a27.58,27.58,0,0,0,24.52,9.21c14.91-2,25.52-15.1,23.65-29.41A25.38,25.38,0,0,0,136.49,309l16.61-15.65,11.66,5,4.46,1.89h0c23.67,11.68,57.38,27,76.44,38.25,28.25,16.59,56.14,32.66,80.49,55.19,3.71,3.44,7.27,7.05,10.61,10.82a144,144,0,0,1,35.68,95.83Z"/><polygon class="cls-3" points="87.83 378.49 81.53 374.93 81.65 374.81 87.83 378.49"/><path class="cls-4" d="M363,734.51a27.19,27.19,0,0,0,27.25,27.2v39.62l-163.7-91.77L178,682.36l-105.25-59V494.28L77.57,497l200.8,114.29L292,619.12l1,.59,10,5.72,87.21,49.64v32.26A27.22,27.22,0,0,0,363,734.51Z"/><polygon class="cls-5" points="202.95 696.88 72.39 791.83 72.75 623.36 202.95 696.88"/></svg>