<svg id="Layer_1" data-name="Layer 1" xmlns="http://www.w3.org/2000/svg" xmlns:xlink="http://www.w3.org/1999/xlink" viewBox="0 0 1080 1080"><defs><style>.cls-1{fill:url(#linear-gradient);}.cls-2{fill:url(#linear-gradient-2);}.cls-3{fill:url(#linear-gradient-3);}.cls-4{fill:url(#linear-gradient-4);}</style><linearGradient id="linear-gradient" x1="438.51" y1="68.8" x2="781.24" y2="893.36" gradientUnits="userSpaceOnUse"><stop offset="0" stop-color="#e2000c"/><stop offset="0.17" stop-color="#e71118"/><stop offset="0.49" stop-color="#f43b37"/><stop offset="0.55" stop-color="#d23334"/><stop offset="0.71" stop-color="#791f2a"/><stop offset="0.85" stop-color="#381124"/><stop offset="0.95" stop-color="#0f0720"/><stop offset="1" stop-color="#00041e"/></linearGradient><linearGradient id="linear-gradient-2" x1="266.25" y1="223.25" x2="261.69" y2="210.27" gradientUnits="userSpaceOnUse"><stop offset="0" stop-color="#00041e"/><stop offset="0.18" stop-color="#6d1f26" stop-opacity="0.91"/><stop offset="0.39" stop-color="#fa4230" stop-opacity="0.8"/><stop offset="0.52" stop-color="#f23839" stop-opacity="0.84"/><stop offset="0.76" stop-color="#dd1c52" stop-opacity="0.96"/><stop offset="0.82" stop-color="#d6145a"/></linearGradient><linearGradient id="linear-gradient-3" x1="79.18" y1="428.38" x2="914.8" y2="1002.53" gradientUnits="userSpaceOnUse"><stop offset="0" stop-color="#f45351"/><stop offset="0.12" stop-color="#f14646"/><stop offset="0.5" stop-color="#ea2127"/><stop offset="0.81" stop-color="#e50a14"/><stop offset="1" stop-color="#e3020d"/></linearGradient><linearGradient id="linear-gradient-4" x1="546.03" y1="885.4" x2="160.97" y2="865.24" gradientUnits="userSpaceOnUse"><stop offset="0" stop-color="#00041e"/><stop offset="0.06" stop-color="#26041b"/><stop offset="0.14" stop-color="#520418"/><stop offset="0.22" stop-color="#790315"/><stop offset="0.31" stop-color="#9a0313"/><stop offset="0.41" stop-color="#b50311"/><stop offset="0.52" stop-color="#c90310"/><stop offset="0.63" stop-color="#d8030f"/><stop offset="0.77" stop-color="#e0030e"/><stop offset="1" stop-color="#e3030e"/></linearGradient></defs><title>Iconic Version 1</title><path class="cls-1" d="M831.36,460.76c-.47,98.87-51.84,193.62-136.76,246.67l-19.79-11.27c.75-2.95,1.45-5.9,2.1-8.89a289.81,289.81,0,0,0,6.83-62.89c0-2.34,0-4.67-.09-7-1.68-41.73-10.95-82-30.41-119.12-19.14-36.54-46.23-66.16-77.48-93.11a562,562,0,0,0-67.24-49.46C502.77,352,497,348.42,491.07,345q-24.49-14.52-49.93-27.46L270.32,220.69l-12.17-7.25-18.24-10.85,49.55-46.65a54.34,54.34,0,0,0,48.33,18.15c29.38-3.84,50.3-29.76,46.6-58A49.9,49.9,0,0,0,366.24,83.7L399,52.86l23,9.78,8.8,3.74h0c46.65,23,113.09,53.3,150.66,75.38,55.68,32.71,110.66,64.38,158.66,108.78,7.3,6.79,14.32,13.9,20.92,21.34,36.63,41.5,60.26,94.09,67.75,148.93A286,286,0,0,1,831.36,460.76Z"/><polygon class="cls-2" points="270.32 220.69 257.92 213.67 258.15 213.44 270.32 220.69"/><path class="cls-3" d="M812.79,922.43a53.61,53.61,0,0,0,53.71,53.62v78.09L543.85,873.25l-95.78-53.62L240.61,703.36V448.93l9.5,5.43L645.89,679.64,672.8,695l2,1.17,19.79,11.27,171.9,97.84v63.59A53.65,53.65,0,0,0,812.79,922.43Z"/><polygon class="cls-4" points="497.24 848.27 239.91 1035.42 240.6 703.35 497.24 848.27"/></svg>